<svg width="132" height="91" viewBox="0 0 126 91" fill="none" xmlns="http://www.w3.org/2000/svg">
<path d="M7.19323 82.9385C6.96958 82.6594 6.68279 82.4373 6.3565 82.2907C6.04578 82.1385 5.70534 82.0567 5.3594 82.051C5.19125 82.0513 5.02344 82.0656 4.85769 82.0939C4.69542 82.1203 4.53969 82.1774 4.39883 82.2622C4.26387 82.3427 4.14752 82.4509 4.05746 82.5797C3.96036 82.7285 3.91207 82.9039 3.91933 83.0814C3.91397 83.2342 3.95137 83.3854 4.02731 83.518C4.10799 83.6434 4.21669 83.7483 4.34485 83.8245C4.50387 83.9206 4.6719 84.0009 4.84656 84.0642C5.04026 84.1373 5.25937 84.2119 5.5023 84.2897C5.8516 84.4072 6.21519 84.5358 6.59307 84.6755C6.96269 84.8118 7.31079 85.0006 7.62668 85.236C7.9382 85.471 8.2004 85.765 8.39832 86.1013C8.61371 86.4953 8.71902 86.9401 8.70317 87.3889C8.71902 87.9175 8.61024 88.4424 8.38562 88.9211C8.17721 89.3403 7.87581 89.7063 7.50442 89.9912C7.12445 90.2783 6.69342 90.4906 6.23424 90.6168C5.75611 90.7531 5.26118 90.8216 4.764 90.82C4.03386 90.8209 3.30949 90.6908 2.62533 90.4358C1.97679 90.2045 1.38935 89.8288 0.90741 89.3371L2.53801 87.6779C2.81167 88.0048 3.15149 88.2699 3.53509 88.4559C3.91382 88.6575 4.335 88.7664 4.764 88.7734C4.94504 88.774 5.12559 88.7543 5.30224 88.7147C5.46573 88.6812 5.62142 88.6171 5.7611 88.5258C5.89498 88.4383 6.00429 88.318 6.07864 88.1765C6.16079 88.0143 6.20117 87.8342 6.19613 87.6525C6.20133 87.4765 6.15016 87.3035 6.05007 87.1587C5.93813 87.0085 5.79723 86.8821 5.63568 86.7872C5.42399 86.6617 5.19933 86.5595 4.96564 86.4823C4.6989 86.3903 4.39565 86.2908 4.05587 86.1839C3.72631 86.0767 3.40344 85.95 3.08895 85.8044C2.77937 85.6637 2.49422 85.4745 2.24427 85.2439C1.99203 85.0102 1.78907 84.7284 1.6473 84.4151C1.48706 84.0408 1.41013 83.6361 1.42183 83.2291C1.40708 82.7168 1.52755 82.2097 1.77113 81.7588C1.99735 81.3594 2.3111 81.0163 2.68884 80.7554C3.0774 80.4885 3.51091 80.2938 3.96856 80.1806C4.43963 80.0599 4.92393 79.9986 5.41021 79.998C6.01772 80.0023 6.6201 80.1096 7.19164 80.3156C7.78031 80.5215 8.32063 80.8457 8.77938 81.2682L7.19323 82.9385Z" fill="white"/>
<path d="M24.1757 90.5627H21.7226L19.6856 83.5926H19.6411L17.5945 90.5627H15.1208L12.1962 80.2599H14.8731L16.5037 87.1142H16.5466L18.3884 80.2599H20.9796L22.8277 87.1142H22.8705L24.5297 80.2599H27.1209L24.1757 90.5627Z" fill="white"/>
<path d="M37.8983 90.5627L37.1045 88.54H33.1177L32.3603 90.5627H29.6612L33.983 80.2599H36.3995L40.6864 90.5627H37.8983ZM35.1341 83.0115L33.8242 86.5474H36.4138L35.1341 83.0115Z" fill="white"/>
<path d="M52.2467 83.4322C52.2641 83.9593 52.1489 84.4823 51.9117 84.9533C51.6984 85.3553 51.3885 85.6979 51.0099 85.9504C50.6102 86.2121 50.1664 86.3993 49.7 86.5029C49.1947 86.6211 48.6772 86.6798 48.1583 86.6775H46.9214V90.5627H44.4271V80.2599H48.2107C48.7446 80.2556 49.2773 80.3121 49.7984 80.4282C50.255 80.5255 50.6892 80.7081 51.0781 80.9665C51.4422 81.2136 51.7378 81.549 51.9371 81.9413C52.158 82.4064 52.2641 82.9177 52.2467 83.4322ZM49.7587 83.4481C49.7671 83.2393 49.7165 83.0324 49.6127 82.8511C49.5171 82.6968 49.3816 82.5711 49.2205 82.4875C49.0454 82.3969 48.8556 82.3377 48.66 82.3129C48.4454 82.2826 48.2289 82.2677 48.0122 82.2684H46.9214V84.6992H47.9694C48.1935 84.7002 48.4173 84.6805 48.6378 84.6405C48.8396 84.6061 49.034 84.5374 49.2125 84.4373C49.3771 84.3455 49.515 84.2126 49.6127 84.0514C49.7157 83.8675 49.7662 83.6588 49.7587 83.4481Z" fill="white"/>
<path d="M64.4707 83.4322C64.4881 83.9593 64.3729 84.4823 64.1357 84.9533C63.9224 85.3553 63.6125 85.6979 63.2338 85.9504C62.8341 86.2121 62.3904 86.3993 61.924 86.5029C61.4187 86.6211 60.9012 86.6798 60.3823 86.6775H59.1454V90.5627H56.6527V80.2599H60.4363C60.9702 80.2556 61.5029 80.3121 62.024 80.4282C62.4806 80.5255 62.9148 80.7081 63.3037 80.9665C63.6678 81.2136 63.9633 81.549 64.1627 81.9413C64.3837 82.4063 64.4894 82.9177 64.4707 83.4322ZM61.9827 83.4481C61.9911 83.2393 61.9405 83.0324 61.8367 82.8511C61.7411 82.6968 61.6056 82.5711 61.4445 82.4875C61.2694 82.3969 61.0796 82.3377 60.884 82.3129C60.6694 82.2826 60.4529 82.2677 60.2362 82.2684H59.1454V84.6992H60.1934C60.4175 84.7002 60.6413 84.6805 60.8618 84.6405C61.0636 84.6061 61.258 84.5374 61.4365 84.4373C61.6011 84.3455 61.739 84.2126 61.8367 84.0514C61.9397 83.8675 61.9902 83.6588 61.9827 83.4481Z" fill="white"/>
<path d="M68.8782 90.5627V80.2599H71.382V90.5627H68.8782Z" fill="white"/>
<path d="M82.9677 90.5627L78.819 83.826H78.7761L78.8333 90.5627H76.4183V80.2599H79.2556L83.3837 86.984H83.4282L83.3694 80.2599H85.7859V90.5627H82.9677Z" fill="white"/>
<path d="M98.2115 90.5787C97.4888 90.7479 96.7485 90.8305 96.0062 90.8248C95.2292 90.8335 94.4571 90.7006 93.7278 90.4326C93.0625 90.1866 92.4538 89.8086 91.9384 89.3212C91.4331 88.8389 91.034 88.2565 90.7667 87.6112C90.2009 86.1779 90.2037 84.5826 90.7746 83.1513C91.0455 82.5043 91.4496 81.9217 91.9606 81.4413C92.4741 80.965 93.0776 80.5963 93.7357 80.3569C94.4397 80.1004 95.184 79.9724 95.9331 79.979C96.7057 79.972 97.4736 80.0976 98.2036 80.3505C98.8352 80.5584 99.4154 80.8983 99.9057 81.3476L98.3338 83.137C98.0709 82.8395 97.7456 82.6037 97.3812 82.4463C96.9547 82.2606 96.4934 82.1685 96.0284 82.1764C95.6134 82.1724 95.2021 82.254 94.8201 82.4161C94.4608 82.5732 94.1368 82.8011 93.8675 83.0862C93.5896 83.3799 93.3737 83.7266 93.2324 84.1055C93.0783 84.5171 93.0019 84.9537 93.0069 85.3931C93.0017 85.838 93.0704 86.2807 93.2102 86.703C93.3357 87.0841 93.5415 87.4338 93.8135 87.7287C94.0901 88.0215 94.4278 88.2498 94.8027 88.3971C95.2315 88.5643 95.6889 88.6463 96.1491 88.6385C96.4273 88.6396 96.705 88.6173 96.9795 88.5718C97.2298 88.5324 97.4741 88.4615 97.7066 88.3606V86.4887H95.7426V84.4754H99.9914V89.9372C99.4258 90.2212 98.8283 90.4366 98.2115 90.5787Z" fill="white"/>
<path d="M107.517 89.283C107.522 89.4735 107.486 89.6627 107.411 89.8381C107.337 90.0136 107.227 90.1713 107.087 90.3008C106.952 90.4334 106.791 90.5378 106.615 90.6078C106.439 90.6779 106.251 90.7122 106.061 90.7088C105.673 90.7101 105.299 90.5643 105.013 90.3008C104.879 90.1756 104.771 90.025 104.696 89.8578C104.619 89.6827 104.579 89.4935 104.579 89.3021C104.579 89.1107 104.619 88.9215 104.696 88.7464C104.771 88.5746 104.879 88.4188 105.013 88.2875C105.152 88.154 105.313 88.0464 105.49 87.97C105.756 87.8584 106.049 87.8265 106.333 87.8781C106.617 87.9296 106.88 88.0625 107.09 88.2605C107.23 88.391 107.34 88.5497 107.413 88.7259C107.487 88.9022 107.522 89.0921 107.517 89.283Z" fill="white"/>
<path d="M114.662 82.3843V84.5103H118.649V86.5617H114.662V90.5627H112.203V80.2599H118.984V82.3843H114.662Z" fill="white"/>
<path d="M123.496 90.5627V80.2599H126V90.5627H123.496Z" fill="white"/>
<path d="M101 24.2479C100.697 24.0482 100.394 23.8511 100.091 23.6566L99.9505 23.5679C99.0383 22.9814 98.1313 22.4192 97.2296 21.8813C97.1834 21.8543 97.1403 21.8274 97.0941 21.7973C96.3907 21.3677 95.7751 20.9952 95.362 20.7495C93.6151 16.9066 91.1934 13.4036 88.2104 10.4049C81.5485 3.69655 72.6888 0 63.2645 0C53.8401 0 44.9836 3.69655 38.3217 10.4049C31.7062 17.1031 28 26.1141 28 35.5C28 44.8859 31.7062 53.8969 38.3217 60.5951C44.9836 67.305 53.8417 71 63.2645 71C64.602 71.0006 65.9386 70.926 67.2677 70.7765C75.2195 69.8793 82.6165 66.2833 88.2104 60.5951C89.0164 59.7835 89.7761 58.9413 90.4896 58.0684L90.4991 58.0589C91.2434 57.1554 91.9345 56.2212 92.5725 55.2564C93.5645 53.774 94.4416 52.2187 95.1961 50.604C95.1961 50.5945 95.2073 50.5834 95.2121 50.5723C97.408 45.8494 98.5397 40.7068 98.5279 35.504C98.5279 34.2908 98.4689 33.0898 98.3508 31.9009C98.2679 31.0767 98.1579 30.2598 98.0207 29.4503C97.7767 27.7415 99.6603 24.9628 101 24.2479ZM31.3599 35.5024C31.3599 17.7694 45.6726 3.34147 63.2581 3.34147C74.4543 3.34147 84.322 9.1843 90.019 18.004C83.4448 14.8718 77.1976 13.0378 71.3475 12.5305C62.1911 11.738 55.9773 14.3804 52.368 16.7343C46.8241 20.3611 44.285 25.2196 44.486 28.4358C44.2351 28.6292 43.9905 28.8279 43.7523 29.0318C39.3919 32.7522 36.9899 38.1115 36.9899 44.1208V47.3814L40.0043 46.0959C43.5641 44.5789 49.6599 44.5424 55.2564 47.8839C56.1896 48.4412 57.0756 49.0732 57.9056 49.7734C59.1621 50.9098 60.3198 52.1495 61.3665 53.4794C61.8131 54.0807 62.2469 54.7296 62.668 55.426C64.8641 59.3112 64.4734 62.9618 62.1432 67.6316C45.0809 67.0562 31.3599 52.8628 31.3599 35.5008V35.5024ZM71.0986 66.6789C68.9551 53.6411 62.66 47.2752 57.4973 44.1969C52.0395 40.941 46.0873 40.3307 41.5753 41.1851C42.0952 37.9973 43.6487 35.0656 45.9996 32.8362C46.7603 34.2454 48.0283 35.3882 49.14 36.165C49.0474 35.5927 49.0841 32.1561 49.3218 30.4157C50.4926 29.7693 51.7279 29.2455 53.0076 28.8527C52.9917 29.0509 52.9805 29.249 52.9805 29.4503C52.9805 31.2934 53.7172 33.0609 55.0284 34.3642C56.3397 35.6674 58.1181 36.3996 59.9726 36.3996C61.827 36.3996 63.6054 35.6674 64.9167 34.3642C66.228 33.0609 66.9647 31.2934 66.9647 29.4503C66.9645 29.1961 66.9507 28.9421 66.9232 28.6894C70.4703 29.7055 73.8148 31.5142 76.8866 33.8855C85.8787 41.4245 88.3587 51.4695 84.3635 59.6187C80.5763 62.9963 76.0264 65.418 71.0986 66.6789ZM62.9168 27.8889C63.1831 28.3895 63.3158 28.9495 63.3022 29.5156C63.2886 30.0816 63.1291 30.6347 62.8389 31.122C62.5488 31.6093 62.1377 32.0144 61.645 32.2987C61.1523 32.583 60.5945 32.7369 60.0249 32.7458C59.4553 32.7546 58.8929 32.618 58.3915 32.3491C57.8902 32.0802 57.4666 31.688 57.1613 31.21C56.856 30.7319 56.6793 30.184 56.6479 29.6187C56.6165 29.0533 56.7316 28.4894 56.9821 27.9809C58.1553 27.8316 59.3369 27.7574 60.5196 27.759C61.3204 27.7592 62.1207 27.8026 62.9168 27.8889ZM82.9361 33.3244C79.9743 30.525 76.8387 28.2979 73.5963 26.6668C75.4639 25.4367 76.4496 23.5932 76.5772 23.1256C73.4145 23.6582 66.4973 23.4521 60.8179 23.4521H60.5116C56.5563 23.4521 52.9151 24.1258 49.7141 25.432C50.6009 23.8849 52.191 21.9922 54.7524 20.3151C57.7828 18.3353 63.046 16.1193 70.9711 16.8041C72.9565 16.9816 74.9259 17.3064 76.8626 17.7758C87.472 20.5434 94.3301 28.5278 95.11 37.3427C94.933 40.5257 94.2827 43.665 93.1802 46.6586C90.3093 41.5624 86.8005 36.9781 82.9361 33.3244Z" fill="white"/>
</svg>